<svg width="48" height="48" viewBox="0 0 48 48" fill="none" xmlns="http://www.w3.org/2000/svg">
<mask id="mask0_11_61" style="mask-type:alpha" maskUnits="userSpaceOnUse" x="0" y="0" width="48" height="48">
<circle cx="24" cy="24" r="24" fill="#D9D9D9"/>
</mask>
<g mask="url(#mask0_11_61)">
</g>
<mask id="mask1_11_61" style="mask-type:alpha" maskUnits="userSpaceOnUse" x="0" y="0" width="48" height="48">
<circle cx="24" cy="24" r="24" fill="#D9D9D9"/>
</mask>
<g mask="url(#mask1_11_61)">
<path fill-rule="evenodd" clip-rule="evenodd" d="M42.1945 16.1242C44.064 9.21907 50.1248 -9.5664 50.7279 -10.2901C51.4628 -11.1781 52.3256 -11.5237 53.2004 -11.4004V59.4242C50.6977 59.4242 50.155 58.1578 44.3052 38.92C41.1994 28.7282 38.3483 25.2302 36.0868 24.1749C36.0868 24.1749 30.9775 26.7079 28.9572 33.5527C23.6503 51.5542 22.8964 51.7653 18.1021 36.5077C14.5741 25.3209 12.455 25.6526 10.5939 25.6526C9.35371 25.6526 8.78472 27.2507 7.21675 32.2561C4.62358 40.6689 3.77929 40.5784 0.944883 31.5928C-0.344761 27.5139 -0.993037 25.7395 -0.999944 23.9625C-1.00693 22.1665 -0.35865 20.3679 0.944883 16.1845C3.77929 7.10835 4.53312 7.01788 7.33737 15.5211C9.53855 22.185 10.4432 23.2403 13.0966 22.3056C14.936 21.6422 15.1169 21.2502 19.0368 8.64616C22.5647 -2.72161 23.6201 -2.57084 27.5702 10.0031C30.8569 20.4361 32.3176 24.1749 36.0868 24.1749C39.072 24.1749 41.2296 19.7124 42.1945 16.1242Z" fill="white"/>
</g>
</svg>
